<?xml version="1.0" encoding="UTF-8" standalone="no"?>
<svg xmlns="http://www.w3.org/2000/svg" viewBox="0 0 100 100" width="100" height="100">
  <!-- Futbol topu arka planı -->
  <circle cx="50" cy="50" r="48" fill="white" stroke="#333" stroke-width="1" />
  
  <!-- Siyah beşgenler -->
  <polygon points="50,2 85,15 95,50 75,80 50,95 25,80 5,50 15,15" fill="#333" />
  
  <!-- Beyaz altıgenler -->
  <polygon points="50,10 75,20 85,50 65,75 50,85 35,75 15,50 25,20" fill="white" />
  
  <!-- Siyah beşgen 1 -->
  <polygon points="50,10 65,15 70,30 60,45 45,45 35,35 35,20" fill="#333" />
  
  <!-- Siyah beşgen 2 -->
  <polygon points="75,30 85,45 80,65 65,75 55,65 60,50 65,35" fill="#333" />
  
  <!-- Siyah beşgen 3 -->
  <polygon points="40,75 60,75 65,85 50,95 35,85" fill="#333" />
  
  <!-- Siyah beşgen 4 -->
  <polygon points="15,45 35,45 40,65 25,80 10,65" fill="#333" />
  
  <!-- Siyah beşgen 5 -->
  <polygon points="15,30 30,20 45,25 45,40 30,50 15,45" fill="#333" />
</svg> 